<svg class="only-light" width="98" height="96" viewBox="0 0 98 96" fill="none" xmlns="http://www.w3.org/2000/svg">
<g clip-path="url(#clip0_730_27126)">
<path d="M41.4395 69.3848C28.8066 67.8535 19.9062 58.7617 19.9062 46.9902C19.9062 42.2051 21.6289 37.0371 24.5 33.5918C23.2559 30.4336 23.4473 23.7344 24.8828 20.959C28.7109 20.4805 33.8789 22.4902 36.9414 25.2656C40.5781 24.1172 44.4062 23.543 49.0957 23.543C53.7852 23.543 57.6133 24.1172 61.0586 25.1699C64.0254 22.4902 69.2891 20.4805 73.1172 20.959C74.457 23.543 74.6484 30.2422 73.4043 33.4961C76.4668 37.1328 78.0937 42.0137 78.0937 46.9902C78.0937 58.7617 69.1934 67.6621 56.3691 69.2891C59.623 71.3945 61.8242 75.9883 61.8242 81.252L61.8242 91.2051C61.8242 94.0762 64.2168 95.7031 67.0879 94.5547C84.4102 87.9512 98 70.6289 98 49.1914C98 22.1074 75.9883 6.69539e-07 48.9043 4.309e-07C21.8203 1.92261e-07 -1.9479e-07 22.1074 -4.3343e-07 49.1914C-6.20631e-07 70.4375 13.4941 88.0469 31.6777 94.6504C34.2617 95.6074 36.75 93.8848 36.75 91.3008L36.75 83.6445C35.4102 84.2188 33.6875 84.6016 32.1562 84.6016C25.8398 84.6016 22.1074 81.1563 19.4277 74.7441C18.375 72.1602 17.2266 70.6289 15.0254 70.3418C13.877 70.2461 13.4941 69.7676 13.4941 69.1934C13.4941 68.0449 15.4082 67.1836 17.3223 67.1836C20.0977 67.1836 22.4902 68.9063 24.9785 72.4473C26.8926 75.2227 28.9023 76.4668 31.2949 76.4668C33.6875 76.4668 35.2187 75.6055 37.4199 73.4043C39.0469 71.7773 40.291 70.3418 41.4395 69.3848Z" fill="black"/>
</g>
<defs>
<clipPath id="clip0_730_27126">
<rect width="98" height="96" fill="white"/>
</clipPath>
</defs>
</svg>

<svg class="only-dark" width="128" height="128" viewBox="0 0 128 128" fill="none" xmlns="http://www.w3.org/2000/svg">
<path d="M56.7937 84.9688C44.4187 83.4688 35.7 74.5625 35.7 63.0313C35.7 58.3438 37.3875 53.2813 40.2 49.9063C38.9812 46.8125 39.1687 40.25 40.575 37.5313C44.325 37.0625 49.3875 39.0313 52.3875 41.75C55.95 40.625 59.7 40.0625 64.2937 40.0625C68.8875 40.0625 72.6375 40.625 76.0125 41.6563C78.9187 39.0313 84.075 37.0625 87.825 37.5313C89.1375 40.0625 89.325 46.625 88.1062 49.8125C91.1062 53.375 92.7 58.1563 92.7 63.0313C92.7 74.5625 83.9812 83.2813 71.4187 84.875C74.6062 86.9375 76.7625 91.4375 76.7625 96.5938L76.7625 106.344C76.7625 109.156 79.1062 110.75 81.9187 109.625C98.8875 103.156 112.2 86.1875 112.2 65.1875C112.2 38.6563 90.6375 17 64.1062 17C37.575 17 16.2 38.6562 16.2 65.1875C16.2 86 29.4187 103.25 47.2312 109.719C49.7625 110.656 52.2 108.969 52.2 106.438L52.2 98.9375C50.8875 99.5 49.2 99.875 47.7 99.875C41.5125 99.875 37.8562 96.5 35.2312 90.2188C34.2 87.6875 33.075 86.1875 30.9187 85.9063C29.7937 85.8125 29.4187 85.3438 29.4187 84.7813C29.4187 83.6563 31.2937 82.8125 33.1687 82.8125C35.8875 82.8125 38.2312 84.5 40.6687 87.9688C42.5437 90.6875 44.5125 91.9063 46.8562 91.9063C49.2 91.9063 50.7 91.0625 52.8562 88.9063C54.45 87.3125 55.6687 85.9063 56.7937 84.9688Z" fill="white"/>
</svg>
